<?xml version="1.0" standalone="no"?>
<!DOCTYPE svg PUBLIC "-//W3C//DTD SVG 20010904//EN"
 "http://www.w3.org/TR/2001/REC-SVG-20010904/DTD/svg10.dtd">
<svg version="1.0" xmlns="http://www.w3.org/2000/svg"
 width="512.000000pt" height="512.000000pt" viewBox="0 0 512.000000 512.000000"
 preserveAspectRatio="xMidYMid meet">

<g transform="translate(0.000000,512.000000) scale(0.100000,-0.100000)"
fill="#cccccc" stroke="none">
<path d="M2400 4499 c-582 -34 -1122 -267 -1500 -649 -225 -226 -373 -482
-444 -766 -176 -705 180 -1435 897 -1839 59 -33 107 -66 107 -72 0 -23 -78
-176 -154 -304 -49 -80 -76 -137 -76 -155 0 -39 25 -73 67 -90 31 -13 40 -12
122 15 185 62 392 174 532 287 l77 62 145 -23 c136 -21 148 -24 189 -58 134
-109 347 -206 573 -258 134 -31 432 -37 576 -12 l107 18 58 -32 c33 -18 116
-52 185 -75 116 -38 129 -40 158 -28 75 31 83 100 23 193 -23 34 -42 67 -44
73 -2 6 40 40 92 75 239 160 399 370 476 624 25 82 28 104 28 255 0 139 -4
176 -21 235 l-22 70 29 65 c135 307 164 652 84 975 -109 438 -419 829 -865
1093 -299 177 -687 297 -1024 317 -204 12 -243 12 -375 4z m386 -210 c793 -78
1443 -536 1653 -1164 79 -237 84 -503 15 -762 -9 -35 -20 -63 -24 -63 -4 0
-20 18 -35 41 -76 115 -265 271 -433 357 -434 224 -969 224 -1403 1 -306 -157
-533 -423 -609 -714 -64 -245 -20 -534 115 -752 l26 -42 -60 0 c-67 1 -106
-16 -164 -68 -47 -42 -182 -131 -255 -167 l-54 -27 37 63 c72 124 85 174 66
246 -17 61 -62 106 -154 154 -462 241 -793 659 -873 1107 -20 111 -20 330 0
443 114 636 703 1164 1466 1312 231 45 465 57 686 35z m684 -1644 c450 -69
798 -344 902 -712 30 -106 30 -275 0 -384 -54 -202 -199 -391 -397 -520 -49
-32 -100 -65 -113 -74 -29 -21 -62 -86 -62 -125 0 -16 -2 -30 -5 -30 -3 0 -34
14 -68 30 -73 35 -102 36 -212 13 -128 -26 -401 -23 -535 6 -132 28 -281 86
-396 154 -120 71 -283 230 -348 342 -132 229 -148 481 -42 709 148 321 486
545 901 599 76 10 289 5 375 -8z"/>
<path d="M2667 1930 c-79 -25 -137 -108 -137 -196 0 -60 29 -114 83 -158 32
-26 48 -31 106 -34 78 -5 131 16 174 67 79 95 50 249 -57 304 -44 23 -126 31
-169 17z"/>
<path d="M3214 1921 c-149 -68 -156 -290 -12 -360 81 -39 199 -22 249 35 71
81 73 194 6 271 -61 70 -160 92 -243 54z"/>
<path d="M3785 1922 c-51 -24 -101 -80 -116 -131 -25 -85 20 -190 100 -231 47
-24 136 -27 184 -6 39 17 92 71 106 109 19 49 13 128 -12 172 -50 89 -172 129
-262 87z"/>
</g>
</svg>
