<?xml version="1.0" standalone="no"?>
<!DOCTYPE svg PUBLIC "-//W3C//DTD SVG 20010904//EN"
 "http://www.w3.org/TR/2001/REC-SVG-20010904/DTD/svg10.dtd">
<svg version="1.0" xmlns="http://www.w3.org/2000/svg"
 width="512.000000pt" height="512.000000pt" viewBox="0 0 512.000000 512.000000"
 preserveAspectRatio="xMidYMid meet">

<g transform="translate(0.000000,512.000000) scale(0.100000,-0.100000)"
fill="#ffffff" stroke="none">
<path d="M175 5026 c-37 -16 -70 -52 -84 -89 -7 -19 -11 -213 -11 -578 0 -609
-2 -594 65 -645 31 -23 50 -29 106 -32 l69 -4 0 -1039 0 -1039 -95 0 c-88 0
-98 -2 -120 -25 l-25 -24 0 -711 0 -711 25 -24 24 -25 511 0 511 0 24 25 c23
22 25 32 25 120 l0 95 1360 0 1360 0 0 -95 c0 -88 2 -98 25 -120 l24 -25 511
0 511 0 24 25 25 24 0 711 0 711 -25 24 c-22 23 -32 25 -120 25 l-95 0 0 1039
0 1039 70 4 c74 4 105 19 144 72 21 27 21 37 21 605 l0 578 -29 37 c-54 71
150 66 -2448 66 -1939 -1 -2358 -3 -2383 -14z m4705 -666 l0 -520 -2320 0
-2320 0 0 520 0 520 2320 0 2320 0 0 -520z m-4080 -775 l0 -95 -160 80 c-100
50 -160 86 -160 95 0 13 25 15 160 15 l160 0 0 -95z m640 15 l0 -80 -55 0
c-46 0 -60 -4 -80 -25 -25 -24 -25 -26 -25 -215 0 -257 -17 -240 240 -240 257
0 240 -17 240 240 0 189 0 191 -25 215 -20 21 -34 25 -80 25 l-55 0 0 80 0 80
440 0 440 0 0 -80 0 -80 -55 0 c-46 0 -60 -4 -80 -25 -25 -24 -25 -26 -25
-215 0 -257 -17 -240 240 -240 257 0 240 -17 240 240 0 189 0 191 -25 215 -20
21 -34 25 -80 25 l-55 0 0 80 0 80 440 0 440 0 0 -80 0 -80 -55 0 c-46 0 -60
-4 -80 -25 -25 -24 -25 -26 -25 -215 0 -257 -17 -240 240 -240 257 0 240 -17
240 240 0 189 0 191 -25 215 -20 21 -34 25 -80 25 l-55 0 0 80 0 80 240 0 240
0 0 -1040 0 -1040 -95 0 c-88 0 -98 -2 -120 -25 l-25 -24 0 -336 0 -335 -502
0 -503 0 -137 137 -138 138 0 295 0 295 48 31 47 31 50 -24 c94 -43 183 -26
260 52 98 97 101 222 8 325 -95 105 -236 108 -339 5 -56 -56 -80 -118 -71
-184 l5 -39 -260 -173 c-142 -95 -261 -176 -264 -181 -9 -14 77 -130 91 -124
8 3 68 41 134 86 66 44 123 80 126 80 3 0 5 -107 5 -237 l0 -238 -137 -137
-138 -138 -502 0 -503 0 0 335 0 336 -25 24 c-22 23 -32 25 -120 25 l-95 0 0
1040 0 1040 240 0 240 0 0 -80z m3200 -15 l0 -95 -160 80 c-100 50 -160 86
-160 95 0 13 25 15 160 15 l160 0 0 -95z m-3930 -236 c0 -3 -52 -40 -115 -83
l-115 -76 0 140 0 140 115 -57 c63 -32 115 -60 115 -64z m3840 0 c0 -3 -52
-40 -115 -83 l-115 -76 0 140 0 140 115 -57 c63 -32 115 -60 115 -64z m-2950
-69 l0 -80 -80 0 -80 0 0 80 0 80 80 0 80 0 0 -80z m1040 0 l0 -80 -80 0 -80
0 0 80 0 80 80 0 80 0 0 -80z m1040 0 l0 -80 -80 0 -80 0 0 80 0 80 80 0 80 0
0 -80z m-2880 -210 l0 -140 -115 57 c-63 32 -114 61 -113 65 2 6 215 155 226
157 1 1 2 -62 2 -139z m3840 0 l0 -140 -115 57 c-63 32 -114 61 -113 65 2 6
215 155 226 157 1 1 2 -62 2 -139z m-3930 -281 c0 -3 -52 -40 -115 -83 l-115
-76 0 140 0 140 115 -57 c63 -32 115 -60 115 -64z m3840 0 c0 -3 -52 -40 -115
-83 l-115 -76 0 140 0 140 115 -57 c63 -32 115 -60 115 -64z m-3750 -279 l0
-140 -115 57 c-63 32 -114 61 -113 65 2 6 215 155 226 157 1 1 2 -62 2 -139z
m3840 0 l0 -140 -115 57 c-63 32 -114 61 -113 65 2 6 215 155 226 157 1 1 2
-62 2 -139z m-3930 -281 c0 -3 -52 -40 -115 -83 l-115 -76 0 140 0 140 115
-57 c63 -32 115 -60 115 -64z m3840 0 c0 -3 -52 -40 -115 -83 l-115 -76 0 140
0 140 115 -57 c63 -32 115 -60 115 -64z m-3750 -279 l0 -140 -115 57 c-63 32
-114 61 -113 65 2 6 215 155 226 157 1 1 2 -62 2 -139z m3840 0 l0 -140 -115
57 c-63 32 -114 61 -113 65 2 6 215 155 226 157 1 1 2 -62 2 -139z m-1705 105
c50 -49 15 -135 -55 -135 -41 0 -80 39 -80 80 0 41 39 80 80 80 19 0 40 -9 55
-25z m-2135 -440 c0 -13 -25 -15 -160 -15 l-160 0 0 95 0 95 160 -80 c100 -50
160 -86 160 -95z m3840 0 c0 -13 -25 -15 -160 -15 l-160 0 0 95 0 95 160 -80
c100 -50 160 -86 160 -95z m-3600 -775 l0 -600 -400 0 -400 0 0 600 0 600 400
0 400 0 0 -600z m3840 0 l0 -600 -400 0 -400 0 0 600 0 600 400 0 400 0 0
-600z m-2255 100 l59 -60 -124 0 -124 0 59 60 c33 33 62 60 65 60 3 0 32 -27
65 -60z m1295 -340 l0 -120 -1360 0 -1360 0 0 120 0 120 1360 0 1360 0 0 -120z"/>
<path d="M2610 4795 c-124 -19 -245 -36 -269 -40 -26 -4 -53 -16 -67 -30 -24
-24 -24 -26 -24 -240 l0 -215 -42 0 c-129 -1 -225 -130 -189 -251 13 -45 61
-104 100 -123 94 -48 211 -12 263 79 22 39 23 50 28 335 l5 295 155 22 c85 12
174 24 198 28 l42 6 0 -155 0 -156 -42 0 c-168 -1 -257 -199 -146 -326 95
-108 259 -88 323 40 l25 50 0 332 c0 320 -1 332 -21 358 -27 34 -50 33 -339
-9z m188 -617 c32 -32 -8 -80 -48 -58 -34 18 -19 70 20 70 9 0 21 -5 28 -12z
m-560 -80 c32 -32 -8 -80 -48 -58 -34 18 -19 70 20 70 9 0 21 -5 28 -12z"/>
<path d="M570 1271 c-128 -42 -210 -148 -210 -272 0 -158 148 -292 305 -276
64 7 143 45 179 88 53 63 70 108 70 189 0 81 -17 126 -70 189 -55 66 -196 108
-274 82z m154 -190 c26 -27 31 -39 31 -81 0 -43 -5 -54 -33 -82 -28 -28 -39
-33 -82 -33 -43 0 -54 5 -82 33 -28 28 -33 39 -33 81 0 52 25 92 70 112 37 16
96 3 129 -30z"/>
<path d="M585 535 c-16 -15 -25 -36 -25 -55 0 -19 9 -40 25 -55 49 -50 135
-15 135 55 0 41 -39 80 -80 80 -19 0 -40 -9 -55 -25z"/>
<path d="M4410 1271 c-128 -42 -210 -148 -210 -272 0 -114 84 -229 194 -263
137 -43 269 15 338 148 31 58 31 174 0 232 -33 64 -70 103 -126 131 -54 27
-150 39 -196 24z m154 -190 c26 -27 31 -39 31 -81 0 -43 -5 -54 -33 -82 -28
-28 -39 -33 -82 -33 -43 0 -54 5 -82 33 -28 28 -33 39 -33 81 0 52 25 92 70
112 37 16 96 3 129 -30z"/>
<path d="M4425 535 c-50 -49 -15 -135 55 -135 41 0 80 39 80 80 0 41 -39 80
-80 80 -19 0 -40 -9 -55 -25z"/>
</g>
</svg>
