<?xml version="1.0" standalone="no"?>
<!DOCTYPE svg PUBLIC "-//W3C//DTD SVG 20010904//EN"
 "http://www.w3.org/TR/2001/REC-SVG-20010904/DTD/svg10.dtd">
<svg version="1.0" xmlns="http://www.w3.org/2000/svg"
 width="512.000000pt" height="512.000000pt" viewBox="0 0 512.000000 512.000000"
 preserveAspectRatio="xMidYMid meet">

<g transform="translate(0.000000,512.000000) scale(0.100000,-0.100000)"
fill="#ffffff" stroke="none">
<path d="M1745 5110 c-183 -37 -332 -173 -396 -365 -11 -33 -15 -308 -19
-1478 l-5 -1438 -166 158 c-224 214 -300 253 -497 253 -264 0 -494 -182 -547
-435 -8 -38 -15 -89 -15 -112 0 -80 29 -197 71 -283 40 -84 48 -92 453 -495
414 -414 502 -492 683 -604 216 -134 430 -218 717 -284 87 -19 126 -21 861
-24 755 -4 771 -4 869 17 264 57 487 181 678 378 180 186 290 389 355 657 16
64 18 207 21 1735 2 1237 0 1679 -8 1720 -37 175 -176 327 -348 380 -87 27
-217 27 -305 0 -124 -38 -239 -136 -298 -252 -57 -113 -59 -132 -59 -615 l0
-443 -46 30 c-161 102 -381 97 -543 -11 -34 -23 -76 -58 -94 -79 l-31 -38 -65
60 c-116 109 -272 161 -413 139 -81 -14 -142 -34 -190 -66 -21 -14 -40 -25
-42 -25 -3 0 -6 249 -8 553 -4 495 -6 558 -22 607 -82 254 -339 410 -591 360z
m241 -232 c55 -27 109 -84 138 -147 21 -46 21 -46 26 -1261 6 -1311 3 -1236
60 -1350 75 -149 231 -254 407 -274 132 -16 303 47 402 147 l53 55 35 -39 c75
-83 206 -149 328 -164 138 -17 310 49 414 160 59 64 86 106 119 189 15 37 17
150 22 1161 l5 1120 28 57 c30 62 83 115 149 150 35 19 59 23 128 23 73 0 92
-4 135 -27 64 -34 118 -90 147 -153 l23 -50 3 -1590 c2 -1045 -1 -1621 -7
-1680 -27 -236 -111 -429 -266 -613 -147 -174 -341 -296 -583 -365 -76 -22
-85 -22 -827 -22 l-750 0 -126 27 c-301 65 -543 176 -793 361 -112 84 -856
825 -890 887 -107 197 -50 421 134 519 110 59 220 60 327 4 35 -19 135 -108
307 -276 254 -246 255 -247 299 -247 35 0 49 6 73 31 l29 30 5 1577 c6 1758
-1 1606 76 1691 95 106 242 133 370 69z m808 -1427 c61 -30 116 -86 147 -149
l24 -47 0 -490 0 -490 -24 -47 c-31 -63 -86 -119 -147 -149 -40 -20 -64 -24
-134 -24 -72 0 -93 4 -136 27 -64 34 -128 104 -148 165 -24 69 -24 967 0 1036
27 81 111 158 204 188 49 16 162 5 214 -20z m818 0 c61 -29 116 -85 147 -151
l26 -55 0 -485 0 -485 -27 -52 c-34 -64 -86 -115 -147 -145 -37 -19 -62 -23
-131 -23 -72 0 -93 4 -136 27 -66 34 -128 105 -151 171 -16 47 -18 94 -18 512
0 418 2 465 18 512 30 87 111 163 207 194 45 15 164 4 212 -20z"/>
</g>
</svg>
