<?xml version="1.0" standalone="no"?>
<!DOCTYPE svg PUBLIC "-//W3C//DTD SVG 20010904//EN"
 "http://www.w3.org/TR/2001/REC-SVG-20010904/DTD/svg10.dtd">
<svg version="1.0" xmlns="http://www.w3.org/2000/svg"
 width="512.000000pt" height="512.000000pt" viewBox="0 0 512.000000 512.000000"
 preserveAspectRatio="xMidYMid meet">

<g transform="translate(0.000000,512.000000) scale(0.100000,-0.100000)"
fill="#ffffff" stroke="none">
<path d="M1885 5008 c-73 -26 -128 -89 -140 -160 l-7 -38 -436 0 c-509 0 -500
1 -593 -90 -104 -103 -94 132 -94 -2215 0 -1997 0 -2051 19 -2100 22 -57 94
-139 147 -166 20 -10 65 -23 100 -29 88 -14 3270 -14 3358 0 35 6 80 19 100
29 53 27 125 109 147 166 19 49 19 103 19 2100 0 1950 -1 2053 -18 2102 -25
72 -88 140 -162 174 l-60 29 -442 0 -441 0 -7 40 c-9 52 -59 117 -110 144 -39
21 -52 21 -695 23 -440 1 -665 -2 -685 -9z m1285 -419 c0 -132 -4 -228 -10
-240 -27 -49 -32 -49 -600 -49 -568 0 -573 0 -600 49 -6 12 -10 108 -10 240
l0 221 610 0 610 0 0 -221z m-1430 -84 l0 -105 -305 0 -305 0 0 -1840 0 -1840
1430 0 1430 0 0 1840 0 1840 -305 0 -305 0 0 105 0 106 431 -3 431 -3 29 -33
29 -32 0 -2025 c0 -1548 -3 -2030 -12 -2050 -26 -58 78 -55 -1728 -55 -1806 0
-1702 -3 -1728 55 -9 20 -12 502 -12 2049 l0 2023 21 27 c12 15 31 32 43 36
11 5 209 9 439 9 l417 1 0 -105z m134 -349 c40 -28 82 -47 108 -51 24 -3 300
-5 613 -3 631 3 589 -1 675 69 l35 29 242 0 243 0 0 -1640 0 -1640 -1230 0
-1230 0 0 1640 0 1640 239 0 238 0 67 -44z"/>
<path d="M2528 3679 c-174 -25 -276 -162 -235 -315 10 -40 11 -56 1 -80 -15
-35 -10 -60 20 -94 12 -14 30 -44 40 -67 10 -23 29 -52 42 -64 21 -19 24 -32
24 -89 0 -59 -3 -69 -27 -92 -16 -15 -77 -49 -138 -78 -60 -28 -123 -63 -139
-78 -34 -32 -65 -96 -66 -134 l0 -28 510 0 510 0 0 28 c-1 38 -32 102 -66 133
-35 31 -63 47 -169 94 -44 20 -92 48 -107 62 -25 24 -28 34 -28 94 0 47 4 70
15 79 8 7 23 38 31 69 9 31 28 69 41 85 20 24 24 36 18 65 -3 20 -5 50 -4 66
9 125 3 181 -20 219 -24 39 -85 75 -127 76 -14 0 -26 10 -34 30 -7 17 -18 29
-24 29 -6 -1 -37 -5 -68 -10z"/>
<path d="M1740 2050 l0 -100 820 0 820 0 0 100 0 100 -820 0 -820 0 0 -100z"/>
<path d="M1740 1535 l0 -105 665 0 665 0 0 105 0 105 -665 0 -665 0 0 -105z"/>
</g>
</svg>
